{"title":"Eurovision.You.Decide.2016.720p.50fps.WEB-DL.H264","uid":13685613,"size":3491564373,"categoryP":"video","categoryS":"hd___tv_shows","magnet":"?xt=urn:btih:d866ef46782c9f8888f2f318ea63d5f272546802&amp;dn=Eurovision.You.Decide.2016.720p.50fps.WEB-DL.H264&amp;tr=udp%3A%2F%2Ftracker.leechers-paradise.org%3A6969&amp;tr=udp%3A%2F%2Fzer0day.ch%3A1337&amp;tr=udp%3A%2F%2Fopen.demonii.com%3A1337&amp;tr=udp%3A%2F%2Ftracker.coppersurfer.tk%3A6969&amp;tr=udp%3A%2F%2Fexodus.desync.com%3A6969","seeders":0,"leechers":0,"uploader":null,"files":1,"time":1456541816,"description":"Source: BBC iPlayer\r\n\r\n\r\nRunning order:\r\n\r\n1. Dulcima - When You Go\r\n2. Matthew James - A Better Man\r\n3. Darline - Until Tomorrow\r\n4. Karl William Lund - Miracle\r\n5. Bianca - Shine a Little Light\r\n6. Joe &amp; Jake - You're Not Alone\r\n\r\n\r\nMediaInfo:\r\n\r\nGeneral\r\nComplete name             : Eurovision.You.Decide.2016.720p.50fps.WEB-DL.H264.mp4\r\nFormat                    : MPEG-4\r\nFormat profile            : Base Media\r\nCodec ID                  : isom\r\nFile size                 : 3.25 GiB\r\nDuration                  : 1h 31mn\r\nOverall bit rate          : 5 075 Kbps\r\nWriting application       : Lavf57.14.100\r\n\r\nVideo\r\nID                        : 1\r\nFormat                    : AVC\r\nFormat/Info               : Advanced Video Codec\r\nFormat profile            :   \r\nFormat settings, CABAC    : Yes\r\nFormat settings, ReFrames : 2 frames\r\nCodec ID                  : avc1\r\nCodec ID/Info             : Advanced Video Coding\r\nDuration                  : 1h 31mn\r\nBit rate                  : 4 967 Kbps\r\nWidth                     : 1 280 pixels\r\nHeight                    : 720 pixels\r\nDisplay aspect ratio      : 16:9\r\nFrame rate mode           : Variable\r\nFrame rate                : 50.000 fps\r\nMinimum frame rate        : 25.000 fps\r\nMaximum frame rate        : 90 000.000 fps\r\nStandard                  : Component\r\nColor space               : YUV\r\nChroma subsampling        : 4:2:0\r\nBit depth                 : 8 bits\r\nScan type                 : Progressive\r\nBits/(Pixel*Frame)        : 0.108\r\nStream size               : 3.18 GiB (98%)\r\nColor range               : Limited\r\nColor primaries           : BT.709\r\nTransfer characteristics  : BT.709\r\nMatrix coefficients       : BT.709\r\n\r\nAudio\r\nID                        : 2\r\nFormat                    : AAC\r\nFormat/Info               : Advanced Audio Codec\r\nFormat profile            : LC\r\nCodec ID                  : 40\r\nDuration                  : 1h 31mn\r\nBit rate mode             : Constant\r\nBit rate                  : 93.5 Kbps\r\nChannel(s)                : 2 channels\r\nChannel positions         : Front: L R\r\nSampling rate             : 48.0 KHz\r\nCompression mode          : Lossy\r\nStream size               : 61.3 MiB (2%)\r\nLanguage                  : English","torrent":{"xt":"urn:btih:d866ef46782c9f8888f2f318ea63d5f272546802","amp;dn":"Eurovision.You.Decide.2016.720p.50fps.WEB-DL.H264","amp;tr":["udp%3A%2F%2Ftracker.leechers-paradise.org%3A6969","udp%3A%2F%2Fzer0day.ch%3A1337","udp%3A%2F%2Fopen.demonii.com%3A1337","udp%3A%2F%2Ftracker.coppersurfer.tk%3A6969","udp%3A%2F%2Fexodus.desync.com%3A6969"],"infoHash":"d866ef46782c9f8888f2f318ea63d5f272546802","infoHashBuffer":{"type":"Buffer","data":[216,102,239,70,120,44,159,136,136,242,243,24,234,99,213,242,114,84,104,2]},"announce":[],"urlList":[]}}